<?xml version="1.0" encoding="utf-8"?>
<!-- Generator: Adobe Illustrator 21.1.0, SVG Export Plug-In . SVG Version: 6.00 Build 0)  -->
<svg version="1.1" xmlns="http://www.w3.org/2000/svg" xmlns:xlink="http://www.w3.org/1999/xlink" x="0px" y="0px"
	 viewBox="0 0 174 226" style="enable-background:new 0 0 174 226;" xml:space="preserve">
<style type="text/css">
	.st0{fill:#E6E0D6;}
	.st1{fill:#DBD2C1;}
	.st2{fill:#D3D3D3;}
	.st3{fill:#ECE5E0;}
	.st4{fill:#B5B5B5;}
	.st5{fill:#E7A2A1;}
	.st6{fill:#E48A8A;}
	.st7{fill:#574A42;}
	.st8{fill:#FFFFFF;}
	.st9{fill:#E9C0C0;}
	.st10{fill:#F1D580;}
	.st11{clip-path:url(#SVGID_2_);fill:#FFFFFF;}
	.st12{opacity:0.33;}
	.st13{fill:#E3E3E4;}
	.st14{clip-path:url(#SVGID_4_);fill:#FFFFFF;}
	.st15{clip-path:url(#SVGID_6_);fill:#FFFFFF;}
	.st16{fill:#AEBF51;}
	.st17{fill:#C6D866;}
	.st18{fill:#E38A22;}
	.st19{fill:#D07A1E;}
	.st20{fill:#E5A14B;}
	.st21{fill:#EDC95D;}
	.st22{fill:#EBC247;}
	.st23{clip-path:url(#SVGID_8_);}
</style>
<g id="BACKGROUND">
</g>
<g id="OBJECTS">
	<path class="st2" d="M31.3,195.7c-1.3,8-8.7,14-16.5,13.3c-7.8-0.7-13-7.7-11.7-15.8c1.3-8,8.7-14,16.5-13.3
		C27.4,180.6,32.6,187.7,31.3,195.7"/>
	<path class="st4" d="M31.3,195.7c0.3-1.7,0.2-3.4,0-5c0,0.8,0,1.7-0.2,2.6c-1.3,8-8.7,14-16.5,13.3c-6.1-0.5-10.6-5-11.7-10.8
		c0,6.9,5,12.6,11.9,13.2C22.6,209.7,30,203.7,31.3,195.7"/>
	<path class="st2" d="M111.7,173.9c0,24.6-19.6,44.6-43.9,44.6c-24.2,0-43.9-20-43.9-44.6s19.6-44.6,43.9-44.6
		C92.1,129.3,111.7,149.3,111.7,173.9"/>
	<path class="st2" d="M102,181.4c0,16.7-13.3,30.3-29.8,30.3c-16.5,0-29.8-13.6-29.8-30.3s13.3-30.3,29.8-30.3
		C88.6,151.2,102,164.7,102,181.4"/>
	<path class="st2" d="M94.7,186.5c0,9.4,4.6,17.1,10.3,17.1s10.3-7.7,10.3-17.1s-4.6-17.1-10.3-17.1S94.7,177.1,94.7,186.5"/>
	<path class="st2" d="M85.2,208.3c0,5.5,7.1,10,15.9,10c8.8,0,15.9-4.5,15.9-10c0-5.5-7.1-10-15.9-10
		C92.3,198.3,85.2,202.8,85.2,208.3"/>
	<path class="st4" d="M101,216.2c-8.2,0-14.9-3.9-15.8-8.9c-0.1,0.4-0.1,0.7-0.1,1.1c0,5.5,7.1,10,15.9,10c8.8,0,15.9-4.5,15.9-10
		c0-0.4,0-0.7-0.1-1.1C116,212.3,109.2,216.2,101,216.2"/>
	<path class="st2" d="M19.4,208.3c0,5.5,7.1,10,15.9,10c8.8,0,15.9-4.5,15.9-10c0-5.5-7.1-10-15.9-10
		C26.5,198.3,19.4,202.8,19.4,208.3"/>
	<path class="st4" d="M35.3,216.2c-8.2,0-14.9-3.9-15.8-8.9c-0.1,0.4-0.1,0.7-0.1,1.1c0,5.5,7.1,10,15.9,10c8.8,0,15.9-4.5,15.9-10
		c0-0.4,0-0.7-0.1-1.1C50.2,212.3,43.5,216.2,35.3,216.2"/>
	<path class="st2" d="M151,80.2c-17.7,17.2-39.5,25-45.2,19.2c-5.7-5.8,4.1-24.5,21.7-41.7c17.7-17.2,36.6-26.5,42.2-20.7
		C175.5,42.7,168.7,63,151,80.2"/>
	<path class="st4" d="M169.8,36.9c-0.8-0.8-1.8-1.3-3-1.5c5.3,6.1-1.6,26-19,43c-15.3,15-33.8,22.8-42.2,20.8
		c0.1,0.1,0.1,0.1,0.2,0.2c5.7,5.8,27.5-1.9,45.2-19.2C168.7,63,175.5,42.7,169.8,36.9"/>
	<g>
		<path class="st5" d="M108,99c-0.1,0-0.1-0.1-0.2-0.1c-0.5-0.4-1.4-3.7,2.4-11.6c3.7-7.6,10.2-16.2,18.4-24.4
			c7.7-7.6,16-13.9,23.4-17.8c7.8-4,12-4,13.1-3.4c0.1,0,0.1,0.1,0.2,0.1c0.5,0.4,1.4,3.7-2.4,11.6c-3.7,7.6-10.2,16.2-18.4,24.4
			c-7.7,7.6-16,13.9-23.4,17.8C113.3,99.7,109.1,99.6,108,99"/>
		<path class="st6" d="M162.9,53.4c3.8-7.9,2.9-11.2,2.4-11.6c0,0-0.1-0.1-0.2-0.1c-0.6-0.3-2-0.5-4.3,0c0.3,1.5,0.2,4.8-2.7,10.7
			c-3.7,7.6-10.2,16.2-18.4,24.4c-7.7,7.6-16,13.9-23.4,17.8c-3.7,1.9-6.6,2.9-8.8,3.4c0.1,0.5,0.2,0.7,0.4,0.9c0,0,0.1,0.1,0.2,0.1
			c1.1,0.6,5.3,0.6,13.1-3.4c7.4-3.9,15.7-10.2,23.4-17.8C152.7,69.7,159.2,61,162.9,53.4"/>
	</g>
	<path class="st2" d="M55.8,46.2C57.1,70.9,67.9,91.4,76,91c8.1-0.4,13.6-20.7,12.4-45.4c-1.3-24.7-8.9-44.3-17-43.9
		C63.3,2.1,54.5,21.6,55.8,46.2"/>
	<path class="st4" d="M71.4,1.7c1.1-0.1,2.2,0.3,3.2,0.9c-8,0.9-16.5,20.2-15.2,44.5c1.1,21.4,9.4,39.7,16.9,43.9
		c-0.1,0-0.2,0-0.3,0c-8.1,0.4-18.9-20.1-20.2-44.8C54.5,21.6,63.3,2.1,71.4,1.7"/>
	<g>
		<path class="st5" d="M74.6,89.3c0.1,0,0.2,0,0.2,0c0.6,0,3.6-1.7,6.1-10.1c2.5-8.1,3.5-18.9,3.1-30.4c-0.5-10.8-2.3-21.1-5.1-29
			c-3-8.3-6.1-11.1-7.3-11.4c-0.1,0-0.2,0-0.2,0c-0.6,0-3.6,1.7-6.1,10.1c-2.5,8.1-3.5,18.9-3.1,30.4c0.5,10.8,2.3,21.1,5.1,29
			C70.3,86.1,73.4,88.9,74.6,89.3"/>
		<path class="st6" d="M65.2,18.5c2.6-8.4,5.5-10.1,6.1-10.1c0,0,0.1,0,0.2,0c0.6,0.2,1.8,1,3.2,3c-1.2,0.9-3.4,3.4-5.3,9.7
			C67,29.2,65.9,40,66.4,51.5c0.5,10.8,2.3,21.1,5.1,29c1.4,4,2.9,6.7,4.1,8.4c-0.4,0.3-0.7,0.4-0.8,0.4c0,0-0.1,0-0.2,0
			c-1.2-0.3-4.3-3.1-7.3-11.4c-2.8-7.9-4.6-18.2-5.1-29C61.7,37.4,62.8,26.6,65.2,18.5"/>
	</g>
	<path class="st2" d="M127.3,125.9c-6.9,19.4-31.1,28.5-54.1,20.3c-23-8.2-36-30.5-29.1-49.9C50.9,77,75.2,67.9,98.1,76
		C121.1,84.2,134.1,106.5,127.3,125.9"/>
	<path class="st4" d="M75.3,140.2c-21.8-7.7-34.6-28.2-30-46.8c-0.5,1-0.9,2-1.2,3c-6.9,19.4,6.2,41.7,29.1,49.9
		c23,8.2,47.2-0.9,54.1-20.3c0.4-1,0.7-2.1,0.9-3.1C120,140.1,97.1,147.9,75.3,140.2"/>
	<g>
		<g>
			<g>
				<path class="st7" d="M83.4,116.9c-2.6-1-6.4-1.3-6.3,0.9c0.2,2.2,2.1,5.7,3.8,6.2c1.6,0.6,5.3-0.9,6.9-2.5
					C89.1,119.9,86,117.8,83.4,116.9"/>
				<path class="st8" d="M82.5,118.5c0,0.4-0.8,0.7-1.8,0.6c-1-0.1-1.8-0.6-1.8-1c0-0.4,0.8-0.7,1.8-0.6
					C81.7,117.6,82.5,118.1,82.5,118.5"/>
			</g>
			<path class="st7" d="M85.2,131.4l-2.4-2l-1.8-1.9l0.2-4.3l-1.9,2.8l-6.4,0.6l-0.3,1.7c-0.4,3,1.3,6,4.3,7c2.8,1,5.9-0.1,7.5-2.4
				L85.2,131.4z"/>
			<path class="st5" d="M73.1,131.9c0.7,1.5,2,2.8,3.7,3.4c1.7,0.6,3.5,0.5,5-0.3c-0.7-1.5-2-2.8-3.7-3.4
				C76.4,131,74.6,131.2,73.1,131.9"/>
			<g>
				<path class="st7" d="M71.9,127.2c-4.2-1.5-6.4-6.1-4.9-10.3c0.1-0.3,0.5-0.5,0.8-0.4c0.3,0.1,0.5,0.5,0.4,0.8
					c-1.2,3.5,0.6,7.4,4.1,8.6c3.5,1.2,7.4-0.6,8.6-4.1c0.1-0.3,0.5-0.5,0.8-0.4c0.3,0.1,0.5,0.5,0.4,0.8
					C80.7,126.5,76.1,128.7,71.9,127.2"/>
				<path class="st7" d="M85.8,132.1c-4.2-1.5-6.4-6.1-4.9-10.3c0.1-0.3,0.5-0.5,0.8-0.4c0.3,0.1,0.5,0.5,0.4,0.8
					c-1.2,3.5,0.6,7.4,4.1,8.6c3.5,1.2,7.4-0.6,8.6-4.1c0.1-0.3,0.5-0.5,0.8-0.4c0.3,0.1,0.5,0.5,0.4,0.8
					C94.6,131.4,90,133.6,85.8,132.1"/>
				<path class="st7" d="M69.3,117.3c-0.2,0.4-0.9,0.5-1.8,0.3c-0.8-0.3-1.4-0.9-1.2-1.3c0.2-0.4,0.9-0.5,1.8-0.2
					C68.9,116.3,69.5,116.9,69.3,117.3"/>
				<path class="st7" d="M97.4,127.3c-0.2,0.4-0.9,0.5-1.8,0.3c-0.8-0.3-1.4-0.9-1.2-1.3c0.2-0.4,0.9-0.5,1.8-0.2
					C97,126.3,97.5,126.9,97.4,127.3"/>
			</g>
		</g>
		<g>
			<path class="st5" d="M61.5,113.6c-0.6,1.7-3.2,2.4-5.7,1.5c-2.5-0.9-4.1-3.1-3.5-4.8c0.6-1.7,3.2-2.4,5.7-1.5
				C60.5,109.7,62.1,111.8,61.5,113.6"/>
			<path class="st5" d="M114.1,132.3c-0.6,1.7-3.2,2.4-5.7,1.5c-2.5-0.9-4.1-3.1-3.5-4.8c0.6-1.7,3.2-2.4,5.7-1.5
				S114.7,130.5,114.1,132.3"/>
		</g>
		<g>
			<g>
				<path class="st7" d="M67.8,100.7c2.7,1,4.3,3.7,4,6.5c0.2-0.4,0.4-0.8,0.6-1.2c1.1-3.2-0.5-6.7-3.7-7.8
					c-3.2-1.1-6.7,0.5-7.8,3.7c-0.2,0.4-0.3,0.9-0.3,1.3C62.1,100.8,65.1,99.7,67.8,100.7"/>
			</g>
			<g>
				<path class="st7" d="M105.7,114.2c2.7,1,4.3,3.7,4,6.5c0.2-0.4,0.4-0.8,0.6-1.2c1.1-3.2-0.5-6.7-3.7-7.8s-6.7,0.5-7.8,3.7
					c-0.2,0.4-0.3,0.9-0.3,1.3C100,114.3,103,113.2,105.7,114.2"/>
			</g>
		</g>
	</g>
	<g>
		<path class="st10" d="M68.4,140c-0.2,0.1-0.4,0.1-0.6,0.2c-0.2,0.1-0.4,0.1-0.6,0.2c-13,4.1-20,32.7-14.2,51
			c6.5,20.4,19.3,30,38,24.1c0.2-0.1,0.4-0.1,0.6-0.2c0.2-0.1,0.4-0.1,0.6-0.2c18.6-5.8,23.7-21,17.3-41.5
			C103.6,155.3,81.4,135.9,68.4,140"/>
		<g>
			<defs>
				<path id="SVGID_5_" d="M68.4,140c-0.2,0.1-0.4,0.1-0.6,0.2c-0.2,0.1-0.4,0.1-0.6,0.2c-13,4.1-20,32.7-14.2,51
					c6.5,20.4,19.3,30,38,24.1c0.2-0.1,0.4-0.1,0.6-0.2c0.2-0.1,0.4-0.1,0.6-0.2c18.6-5.8,23.7-21,17.3-41.5
					c-5.3-16.7-24.1-34.2-37.2-34.2C70.8,139.4,69.6,139.6,68.4,140"/>
			</defs>
			<clipPath id="SVGID_2_">
				<use xlink:href="#SVGID_5_"  style="overflow:visible;"/>
			</clipPath>
			<polygon class="st11" points="109.9,136.6 31.2,161.3 30.7,159.7 109.4,135 			"/>
			<polygon class="st11" points="113.7,148.4 35,173.1 34.5,171.5 113.2,146.8 			"/>
			<polygon class="st11" points="117.4,160.2 38.7,184.9 38.2,183.4 116.9,158.7 			"/>
			<polygon class="st11" points="121.2,172.1 42.4,196.8 41.9,195.2 120.7,170.5 			"/>
			<polygon class="st11" points="124.9,183.9 46.2,208.6 45.7,207 124.4,182.3 			"/>
			<polygon class="st11" points="128.6,195.8 49.9,220.5 49.4,218.9 128.1,194.2 			"/>
		</g>
		<g class="st12">
			<g>
				<path class="st8" d="M68.9,167.5c-0.8,7.1-4.7,12.4-8.7,11.9c-4-0.5-6.6-6.7-5.8-13.8c0.8-7.1,4.7-12.4,8.7-11.9
					C67.1,154.2,69.7,160.4,68.9,167.5"/>
			</g>
		</g>
		<g>
			<g>
				<path class="st13" d="M73.7,139.5c12.2,7.2,24.9,22.5,29.5,37.1c3.9,12.5,4.5,23.3,1.2,31.7c8.2-7.7,9.6-19.8,4.9-34.6
					C104.3,157.7,86.8,140.8,73.7,139.5"/>
			</g>
		</g>
	</g>
	<path class="st2" d="M98.1,162.8c3.3,7.4,10.3,11.4,15.4,9.1c5.2-2.4,6.7-10.2,3.4-17.6c-3.3-7.4-10.3-11.4-15.4-9.1
		C96.2,147.6,94.7,155.5,98.1,162.8"/>
	<path class="st4" d="M116.9,154.3c-0.1-0.3-0.3-0.6-0.4-0.9c2.8,7.1,1.3,14.4-3.7,16.7c-5,2.3-11.5-1.4-15-8.2
		c0.1,0.3,0.2,0.6,0.4,0.9c3.3,7.4,10.3,11.4,15.4,9.1C118.7,169.5,120.2,161.7,116.9,154.3"/>
	<path class="st2" d="M61.1,166.6c-2.8,7.6-9.4,12.2-14.7,10.2s-7.4-9.7-4.7-17.3c2.8-7.6,9.4-12.2,14.7-10.2
		C61.8,151.2,63.9,159,61.1,166.6"/>
	<path class="st4" d="M61.1,166.6c0.6-1.6,1-3.3,1.1-4.9c-0.2,0.8-0.4,1.6-0.7,2.5c-2.8,7.6-9.4,12.2-14.7,10.2
		c-4.2-1.5-6.4-6.6-5.8-12.4c-1.6,6.7,0.6,13.1,5.4,14.8C51.7,178.7,58.3,174.1,61.1,166.6"/>
</g>
</svg>
